<mxfile host="Electron" modified="2023-09-11T19:51:28.330Z" agent="Mozilla/5.0 (Windows NT 10.0; Win64; x64) AppleWebKit/537.36 (KHTML, like Gecko) draw.io/21.5.1 Chrome/112.0.5615.204 Electron/24.6.0 Safari/537.36" etag="AaPaKZudRlYJItGbVPTC" version="21.5.1" type="device">
  <diagram name="Page-1" id="hiyKyGC6-Vo89vdrcPqQ">
    <mxGraphModel dx="1084" dy="824" grid="1" gridSize="10" guides="1" tooltips="1" connect="1" arrows="1" fold="1" page="1" pageScale="1" pageWidth="827" pageHeight="1169" math="0" shadow="0">
      <root>
        <mxCell id="0" />
        <mxCell id="1" parent="0" />
        <mxCell id="BA4NKjhaT-HKr0Hy2YUY-6" style="edgeStyle=orthogonalEdgeStyle;rounded=0;orthogonalLoop=1;jettySize=auto;html=1;entryX=0;entryY=0.5;entryDx=0;entryDy=0;entryPerimeter=0;strokeColor=#00CC00;strokeWidth=2;" edge="1" parent="1" source="BA4NKjhaT-HKr0Hy2YUY-1" target="BA4NKjhaT-HKr0Hy2YUY-5">
          <mxGeometry relative="1" as="geometry">
            <Array as="points">
              <mxPoint x="329" y="189" />
            </Array>
          </mxGeometry>
        </mxCell>
        <mxCell id="BA4NKjhaT-HKr0Hy2YUY-7" style="edgeStyle=orthogonalEdgeStyle;rounded=0;orthogonalLoop=1;jettySize=auto;html=1;strokeWidth=4;strokeColor=#3333FF;" edge="1" parent="1" source="BA4NKjhaT-HKr0Hy2YUY-1" target="BA4NKjhaT-HKr0Hy2YUY-4">
          <mxGeometry relative="1" as="geometry">
            <Array as="points">
              <mxPoint x="329" y="379" />
            </Array>
          </mxGeometry>
        </mxCell>
        <mxCell id="BA4NKjhaT-HKr0Hy2YUY-1" value="Client" style="sketch=0;outlineConnect=0;fontColor=#232F3E;gradientColor=none;fillColor=#232F3D;strokeColor=none;dashed=0;verticalLabelPosition=middle;verticalAlign=middle;align=right;html=1;fontSize=12;fontStyle=0;aspect=fixed;pointerEvents=1;shape=mxgraph.aws4.client;labelPosition=left;spacingRight=5;" vertex="1" parent="1">
          <mxGeometry x="290" y="250" width="78" height="76" as="geometry" />
        </mxCell>
        <mxCell id="BA4NKjhaT-HKr0Hy2YUY-12" style="edgeStyle=orthogonalEdgeStyle;rounded=0;orthogonalLoop=1;jettySize=auto;html=1;strokeWidth=3;strokeColor=#3333ff;" edge="1" parent="1" source="BA4NKjhaT-HKr0Hy2YUY-4" target="BA4NKjhaT-HKr0Hy2YUY-10">
          <mxGeometry relative="1" as="geometry" />
        </mxCell>
        <mxCell id="BA4NKjhaT-HKr0Hy2YUY-4" value="API Gateway (Prod Stage)" style="sketch=0;points=[[0,0,0],[0.25,0,0],[0.5,0,0],[0.75,0,0],[1,0,0],[0,1,0],[0.25,1,0],[0.5,1,0],[0.75,1,0],[1,1,0],[0,0.25,0],[0,0.5,0],[0,0.75,0],[1,0.25,0],[1,0.5,0],[1,0.75,0]];outlineConnect=0;fontColor=#232F3E;gradientColor=#FF4F8B;gradientDirection=north;fillColor=#BC1356;strokeColor=#ffffff;dashed=0;verticalLabelPosition=bottom;verticalAlign=top;align=center;html=1;fontSize=12;fontStyle=0;aspect=fixed;shape=mxgraph.aws4.resourceIcon;resIcon=mxgraph.aws4.api_gateway;" vertex="1" parent="1">
          <mxGeometry x="570" y="340" width="78" height="78" as="geometry" />
        </mxCell>
        <mxCell id="BA4NKjhaT-HKr0Hy2YUY-11" style="edgeStyle=orthogonalEdgeStyle;rounded=0;orthogonalLoop=1;jettySize=auto;html=1;strokeWidth=2;strokeColor=#00cc00;" edge="1" parent="1" source="BA4NKjhaT-HKr0Hy2YUY-5" target="BA4NKjhaT-HKr0Hy2YUY-9">
          <mxGeometry relative="1" as="geometry" />
        </mxCell>
        <mxCell id="BA4NKjhaT-HKr0Hy2YUY-5" value="API Gateway&amp;nbsp;(Prod Stage (Canary))" style="sketch=0;points=[[0,0,0],[0.25,0,0],[0.5,0,0],[0.75,0,0],[1,0,0],[0,1,0],[0.25,1,0],[0.5,1,0],[0.75,1,0],[1,1,0],[0,0.25,0],[0,0.5,0],[0,0.75,0],[1,0.25,0],[1,0.5,0],[1,0.75,0]];outlineConnect=0;fontColor=#232F3E;gradientColor=#FF4F8B;gradientDirection=north;fillColor=#BC1356;strokeColor=#ffffff;dashed=0;verticalLabelPosition=bottom;verticalAlign=top;align=center;html=1;fontSize=12;fontStyle=0;aspect=fixed;shape=mxgraph.aws4.resourceIcon;resIcon=mxgraph.aws4.api_gateway;" vertex="1" parent="1">
          <mxGeometry x="570" y="150" width="78" height="78" as="geometry" />
        </mxCell>
        <mxCell id="BA4NKjhaT-HKr0Hy2YUY-9" value="Lambda V2" style="sketch=0;points=[[0,0,0],[0.25,0,0],[0.5,0,0],[0.75,0,0],[1,0,0],[0,1,0],[0.25,1,0],[0.5,1,0],[0.75,1,0],[1,1,0],[0,0.25,0],[0,0.5,0],[0,0.75,0],[1,0.25,0],[1,0.5,0],[1,0.75,0]];outlineConnect=0;fontColor=#00cc00;gradientColor=#F78E04;gradientDirection=north;fillColor=#D05C17;strokeColor=#ffffff;dashed=0;verticalLabelPosition=bottom;verticalAlign=top;align=center;html=1;fontSize=12;fontStyle=0;aspect=fixed;shape=mxgraph.aws4.resourceIcon;resIcon=mxgraph.aws4.lambda;" vertex="1" parent="1">
          <mxGeometry x="870" y="150" width="78" height="78" as="geometry" />
        </mxCell>
        <mxCell id="BA4NKjhaT-HKr0Hy2YUY-10" value="Lambda V1" style="sketch=0;points=[[0,0,0],[0.25,0,0],[0.5,0,0],[0.75,0,0],[1,0,0],[0,1,0],[0.25,1,0],[0.5,1,0],[0.75,1,0],[1,1,0],[0,0.25,0],[0,0.5,0],[0,0.75,0],[1,0.25,0],[1,0.5,0],[1,0.75,0]];outlineConnect=0;fontColor=#3333ff;gradientColor=#F78E04;gradientDirection=north;fillColor=#D05C17;strokeColor=#ffffff;dashed=0;verticalLabelPosition=bottom;verticalAlign=top;align=center;html=1;fontSize=12;fontStyle=1;aspect=fixed;shape=mxgraph.aws4.resourceIcon;resIcon=mxgraph.aws4.lambda;" vertex="1" parent="1">
          <mxGeometry x="870" y="340" width="78" height="78" as="geometry" />
        </mxCell>
      </root>
    </mxGraphModel>
  </diagram>
</mxfile>
